<svg xmlns="http://www.w3.org/2000/svg" width="20.324" height="20.322" viewBox="0 0 20.324 20.322">
  <g id="auction" transform="translate(0 -0.03)">
    <g id="Group_6" data-name="Group 6" transform="translate(0 16.052)">
      <g id="Group_5" data-name="Group 5">
        <path id="Path_7" data-name="Path 7" d="M11.685,387.484H1.526A1.527,1.527,0,0,0,0,389.01v2.775H13.211V389.01A1.527,1.527,0,0,0,11.685,387.484Z" transform="translate(0 -387.484)" fill="#dfdfdf"/>
      </g>
    </g>
    <g id="Group_8" data-name="Group 8" transform="translate(2.491 0.03)">
      <g id="Group_7" data-name="Group 7" transform="translate(0 0)">
        <path id="Path_8" data-name="Path 8" d="M77.793,16.268,68.52,6.994l1.791-1.788a.752.752,0,0,0,1.029-1.1L67.478.252a.75.75,0,0,0-1.061,1.061l-.032-.032-4.9,4.9.032.035a.75.75,0,0,0-1.061,1.061l3.859,3.862a.752.752,0,1,0,1.064-1.064l.032.032L67.2,8.319l9.27,9.27a.935.935,0,0,0,1.324-1.321Z" transform="translate(-60.231 -0.03)" fill="#dfdfdf"/>
      </g>
    </g>
  </g>
</svg>
