<svg xmlns="http://www.w3.org/2000/svg" width="17.719" height="15.75" viewBox="0 0 17.719 15.75">
  <g id="hou-bed-single" transform="translate(-1.313 -2.625)">
    <path id="Fill_96" data-name="Fill 96" d="M4.191,0A8.2,8.2,0,0,0,0,.867,41.156,41.156,0,0,1,4.191.656,41.156,41.156,0,0,1,8.383.867,8.2,8.2,0,0,0,4.191,0" transform="translate(5.98 7.875)" fill="#dfdfdf"/>
    <path id="Fill_97" data-name="Fill 97" d="M13.781,0H1.313A1.314,1.314,0,0,0,0,1.313V6.771a14.737,14.737,0,0,1,2.63-.565c.052-1.1,2.95-1.612,4.917-1.612s4.865.513,4.917,1.612a14.737,14.737,0,0,1,2.63.565V1.313A1.314,1.314,0,0,0,13.781,0" transform="translate(2.625 2.625)" fill="#dfdfdf"/>
    <path id="Fill_98" data-name="Fill 98" d="M17.719,3.938V1.969C17.719.362,11.158,0,8.859,0S0,.362,0,1.969V3.938Z" transform="translate(1.313 9.188)" fill="#dfdfdf"/>
    <path id="Fill_99" data-name="Fill 99" d="M0,0V4.266a.328.328,0,0,0,.328.328H.984A.327.327,0,0,0,1.3,4.369l.582-1.744H15.842l.582,1.744a.327.327,0,0,0,.311.224h.656a.328.328,0,0,0,.328-.328V0Z" transform="translate(1.313 13.781)" fill="#dfdfdf"/>
  </g>
</svg>
