<svg xmlns="http://www.w3.org/2000/svg" width="15.294" height="17.99" viewBox="0 0 15.294 17.99">
  <path id="Fill_6" data-name="Fill 6" d="M14.577,17.99H.715A.716.716,0,0,1,0,17.275V3.269a.716.716,0,0,1,.715-.716h1.5V2.005a2,2,0,1,1,4.009,0v.548H9.072V2.005a2,2,0,1,1,4.009,0v.548h1.5a.717.717,0,0,1,.716.716V17.275A.717.717,0,0,1,14.577,17.99ZM1.43,6.7v9.854H13.861V6.7Zm0-2.72V5.272H13.861V3.984Zm9.647-2.552a.574.574,0,0,0-.573.573v.548h1.144V2.005A.573.573,0,0,0,11.077,1.432Zm-6.862,0a.574.574,0,0,0-.572.573v.548H4.788V2.005A.574.574,0,0,0,4.216,1.432Z" transform="translate(0)" fill="#00cbef"/>
</svg>
