<svg id="house" xmlns="http://www.w3.org/2000/svg" width="17.309" height="17" viewBox="0 0 17.309 17">
  <path id="Fill_231" data-name="Fill 231" d="M16.782,8.873,8.655.746.528,8.873a.309.309,0,0,1-.437-.437L8.436.091a.309.309,0,0,1,.437,0l8.345,8.345a.309.309,0,1,1-.437.437Z" transform="translate(0 0)" fill="#dfdfdf"/>
  <path id="Fill_233" data-name="Fill 233" d="M7.418,0,0,7.418V15.07a.309.309,0,0,0,.309.309H5.873a.309.309,0,0,0,.309-.309V10.434H8.655V15.07a.309.309,0,0,0,.309.309h5.564a.309.309,0,0,0,.309-.309V7.418Z" transform="translate(1.236 1.621)" fill="#dfdfdf"/>
</svg>
