<svg xmlns="http://www.w3.org/2000/svg" xmlns:xlink="http://www.w3.org/1999/xlink" width="198.536" height="70.475" viewBox="0 0 198.536 70.475">
  <defs>
    <clipPath id="clip-path">
      <path id="Path_2400" data-name="Path 2400" d="M0,74.864V34.011L34.476,7.1l33.5,26.479V74.864H23.561V44.278l10.916-8.214v26.8H56.2V39.523L34.476,22.447,12.645,39.739V74.864Z" transform="translate(0 -7.1)"/>
    </clipPath>
    <linearGradient id="linear-gradient" x1="-0.287" y1="1.838" x2="0.995" y2="-0.549" gradientUnits="objectBoundingBox">
      <stop offset="0" stop-color="#00dbb3"/>
      <stop offset="0.215" stop-color="#00cff0"/>
      <stop offset="0.472" stop-color="#4d8eff"/>
      <stop offset="0.734" stop-color="#ff0de5"/>
      <stop offset="1" stop-color="#ff4772"/>
    </linearGradient>
    <linearGradient id="linear-gradient-2" x1="0.022" y1="1.469" x2="0.883" y2="-0.301" xlink:href="#linear-gradient"/>
    <linearGradient id="linear-gradient-3" x1="-6.088" y1="4.968" x2="1.767" y2="-0.36" xlink:href="#linear-gradient"/>
    <linearGradient id="linear-gradient-4" x1="-2.759" y1="2.426" x2="1.27" y2="0.059" xlink:href="#linear-gradient"/>
    <linearGradient id="linear-gradient-5" x1="-0.676" y1="1.607" x2="0.952" y2="0.032" xlink:href="#linear-gradient"/>
    <linearGradient id="linear-gradient-6" x1="-11.327" y1="9.758" x2="-0.341" y2="1.158" xlink:href="#linear-gradient"/>
    <linearGradient id="linear-gradient-7" x1="-1.897" y1="1.744" x2="1.061" y2="0.223" xlink:href="#linear-gradient"/>
    <linearGradient id="linear-gradient-8" x1="-0.147" y1="2.213" x2="1.413" y2="-2.036" xlink:href="#linear-gradient"/>
    <linearGradient id="linear-gradient-9" x1="-20.671" y1="7.543" x2="-0.355" y2="0.784" xlink:href="#linear-gradient"/>
    <linearGradient id="linear-gradient-10" x1="-1.841" y1="2.7" x2="1.174" y2="-0.038" xlink:href="#linear-gradient"/>
    <linearGradient id="linear-gradient-11" x1="-0.125" y1="2.787" x2="1.368" y2="-2.784" xlink:href="#linear-gradient"/>
    <linearGradient id="linear-gradient-12" x1="-0.337" y1="1.904" x2="4.203" y2="-5.692" xlink:href="#linear-gradient"/>
    <linearGradient id="linear-gradient-13" x1="-3.041" y1="2.266" x2="0.751" y2="0.355" xlink:href="#linear-gradient"/>
    <linearGradient id="linear-gradient-14" x1="-2.954" y1="2.431" x2="1.08" y2="0.18" xlink:href="#linear-gradient"/>
    <linearGradient id="linear-gradient-15" x1="0.159" y1="1.606" x2="0.888" y2="-0.975" xlink:href="#linear-gradient"/>
    <linearGradient id="linear-gradient-16" x1="-2.882" y1="6.525" x2="2.12" y2="-2.413" xlink:href="#linear-gradient"/>
    <linearGradient id="linear-gradient-17" x1="0.04" y1="2.7" x2="1.346" y2="-3.573" xlink:href="#linear-gradient"/>
    <linearGradient id="linear-gradient-18" x1="0.177" y1="1.289" x2="4.41" y2="-9.025" xlink:href="#linear-gradient"/>
    <linearGradient id="linear-gradient-19" x1="0.233" y1="1.899" x2="1.066" y2="-2.732" xlink:href="#linear-gradient"/>
    <linearGradient id="linear-gradient-20" x1="-0.018" y1="2.454" x2="1.518" y2="-3.354" xlink:href="#linear-gradient"/>
    <linearGradient id="linear-gradient-21" x1="0.291" y1="1.537" x2="4.181" y2="-17.921" xlink:href="#linear-gradient"/>
    <linearGradient id="linear-gradient-22" x1="-0.614" y1="3.751" x2="3.498" y2="-8.31" xlink:href="#linear-gradient"/>
    <linearGradient id="linear-gradient-23" x1="-0.017" y1="2.508" x2="4.52" y2="-15.146" xlink:href="#linear-gradient"/>
  </defs>
  <g id="Group_3313" data-name="Group 3313" transform="translate(0 -7.1)">
    <g id="Group_3305" data-name="Group 3305" transform="translate(0 7.1)">
      <g id="Fingerprint_icon_7_1_" clip-path="url(#clip-path)">
        <path id="Path_2377" data-name="Path 2377" d="M8.979,39.814a24.947,24.947,0,0,0,37.5-6.809,1.186,1.186,0,0,0-2.053-1.189,22.706,22.706,0,0,1-34.044,6.052C6.061,34.3,6.6,27.278,12.545,24.576a1.235,1.235,0,1,0-.973-2.27A10.375,10.375,0,0,0,8.979,39.814Z" transform="translate(0.424 -5.878)" fill="url(#linear-gradient)"/>
        <path id="Path_2378" data-name="Path 2378" d="M1.845,48.721C23.569,66.554,56.316,54.449,61.5,27.106a1.208,1.208,0,0,0-2.378-.432C54.262,52.5,23.461,63.42,3.25,46.884c-.432-.432-.865-.757-1.3-1.189a1.313,1.313,0,0,0-1.729,0,1.313,1.313,0,0,0,0,1.729C1.3,48.289,1.737,48.613,1.845,48.721Z" transform="translate(-0.008 -5.599)" fill="url(#linear-gradient-2)"/>
        <path id="Path_2379" data-name="Path 2379" d="M34.924,21.379A1.284,1.284,0,0,0,36,20.082a12.985,12.985,0,0,0-4.755-8.862,1.232,1.232,0,1,0-1.513,1.945,10.768,10.768,0,0,1,3.891,7.241A1.077,1.077,0,0,0,34.924,21.379Z" transform="translate(2.363 -6.789)" fill="url(#linear-gradient-3)"/>
        <path id="Path_2380" data-name="Path 2380" d="M23.062,23.136a1.232,1.232,0,0,0,1.513-1.945A10.68,10.68,0,0,1,30.3,2.278a1.284,1.284,0,0,0,1.081-1.3A1.284,1.284,0,0,0,30.087-.1C18.63,1.089,13.875,15.679,23.062,23.136Z" transform="translate(1.472 -7.681)" fill="url(#linear-gradient-4)"/>
        <path id="Path_2381" data-name="Path 2381" d="M14.039,12.292a1.09,1.09,0,0,0-1.081,1.3,18.953,18.953,0,0,0,6.917,13.834A7.14,7.14,0,0,0,28.953,16.4a4.744,4.744,0,0,1,3.026-8.43A4.821,4.821,0,0,1,35.005,9.05,16.661,16.661,0,0,1,13.822,34.772,1.761,1.761,0,0,1,14.9,31.638c.757,0,1.3.54,1.081.432A13.178,13.178,0,0,0,36.41,27.1a1.164,1.164,0,1,0-2.162-.865,10.759,10.759,0,0,1-16.644,4.107,4.116,4.116,0,0,0-5.836.54,4.234,4.234,0,0,0,.54,5.836,19.284,19.284,0,0,0,12.1,4.323A18.98,18.98,0,0,0,43.435,22.019a18.676,18.676,0,0,0-7.025-14.7,7.14,7.14,0,0,0-9.078,11.024,4.767,4.767,0,0,1,.648,6.7,4.707,4.707,0,0,1-6.7.648,16.514,16.514,0,0,1-6.052-12.1A1.166,1.166,0,0,0,14.039,12.292Z" transform="translate(0.876 -7.213)" fill="url(#linear-gradient-5)"/>
        <path id="Path_2382" data-name="Path 2382" d="M48.711,9.472a1.228,1.228,0,0,0,.54-1.621,27.508,27.508,0,0,0-2.594-4.215,1.1,1.1,0,0,0-1.621-.216,1.1,1.1,0,0,0-.216,1.621A37.6,37.6,0,0,1,47.2,8.932,1.032,1.032,0,0,0,48.711,9.472Z" transform="translate(3.598 -7.419)" fill="url(#linear-gradient-6)"/>
        <path id="Path_2383" data-name="Path 2383" d="M37.233,48.523A31.148,31.148,0,0,0,52.255,12.966a1.232,1.232,0,1,0-2.378.648A28.7,28.7,0,0,1,36.044,46.47a1.22,1.22,0,0,0-.432,1.621A1.192,1.192,0,0,0,37.233,48.523Z" transform="translate(2.864 -6.698)" fill="url(#linear-gradient-7)"/>
        <path id="Path_2384" data-name="Path 2384" d="M1.423,39.149a31.052,31.052,0,0,0,32.855,9.727,1.2,1.2,0,0,0-.757-2.27,28.523,28.523,0,0,1-30.369-8.97,1.083,1.083,0,0,0-1.621-.216A1.242,1.242,0,0,0,1.423,39.149Z" transform="translate(0.09 -4.673)" fill="url(#linear-gradient-8)"/>
        <path id="Path_2385" data-name="Path 2385" d="M56.506,23.015A1.2,1.2,0,0,0,57.7,21.826a43.163,43.163,0,0,0-.324-6.052,1.146,1.146,0,0,0-2.27.324,33.323,33.323,0,0,1,.324,5.728A1.051,1.051,0,0,0,56.506,23.015Z" transform="translate(4.449 -6.479)" fill="url(#linear-gradient-9)"/>
        <path id="Path_2386" data-name="Path 2386" d="M50.109,55.267a1.142,1.142,0,0,0,1.621.54c9.186-4.215,12.213-9.186,15.779-18.589a1.164,1.164,0,1,0-2.162-.865C62,45.216,59.4,49.755,50.866,53.646A1.162,1.162,0,0,0,50.109,55.267Z" transform="translate(4.037 -4.795)" fill="url(#linear-gradient-10)"/>
        <path id="Path_2387" data-name="Path 2387" d="M47.289,51.434c-3.783,4.755-14.374,6.7-20.426,7.133A41.025,41.025,0,0,1,15.407,57.7a1.167,1.167,0,1,0-.54,2.27,42.088,42.088,0,0,0,12.213.865c7.025-.432,17.724-2.594,22.156-8a1.218,1.218,0,0,0-.216-1.729A1.494,1.494,0,0,0,47.289,51.434Z" transform="translate(1.129 -3.557)" fill="url(#linear-gradient-11)"/>
        <path id="Path_2388" data-name="Path 2388" d="M10.155,58.242a1.164,1.164,0,0,0,.865-2.162,36.771,36.771,0,0,1-9.078-4.863,1.1,1.1,0,0,0-1.621.324,1.083,1.083,0,0,0,.216,1.621A35.662,35.662,0,0,0,10.155,58.242Z" transform="translate(0.004 -3.556)" fill="url(#linear-gradient-12)"/>
        <path id="Path_2389" data-name="Path 2389" d="M45.162,29.87a1.229,1.229,0,0,0,1.513-.865A24.933,24.933,0,0,0,38.461,2.851,13.485,13.485,0,0,0,35.219.906a1.117,1.117,0,0,0-1.513.648,1.117,1.117,0,0,0,.648,1.513,9.044,9.044,0,0,1,2.594,1.621,22.683,22.683,0,0,1,7.457,23.669A1.168,1.168,0,0,0,45.162,29.87Z" transform="translate(2.716 -7.607)" fill="url(#linear-gradient-13)"/>
        <path id="Path_2390" data-name="Path 2390" d="M50.62,48.305a1.156,1.156,0,1,0,1.837,1.4c1.4-1.729,2.053-2.594,2.486-3.134a41.91,41.91,0,0,0,8.538-19.67,1.208,1.208,0,1,0-2.378-.432A40.19,40.19,0,0,1,53,45.063,21.4,21.4,0,0,1,50.62,48.305Z" transform="translate(4.067 -5.615)" fill="url(#linear-gradient-14)"/>
        <path id="Path_2391" data-name="Path 2391" d="M72.682,46.205a1.2,1.2,0,0,0-1.513.648c-2.053,5.62-6.16,8.322-11.78,10.375-3.567,1.3-7.781,2.378-12.645,3.675-10.7,2.81-16.644,5.512-28.1,3.891a45.392,45.392,0,0,1-16.211-5.62,1.22,1.22,0,0,0-1.621.432,1.22,1.22,0,0,0,.432,1.621,49.851,49.851,0,0,0,16.968,5.944c12,1.729,18.481-1.189,29.072-3.891C58.848,60.255,69.44,58.093,73.33,47.826A1.184,1.184,0,0,0,72.682,46.205Z" transform="translate(0.053 -3.947)" fill="url(#linear-gradient-15)"/>
        <path id="Path_2392" data-name="Path 2392" d="M66.943,58.616a25.854,25.854,0,0,1-7.781,3.675,1.2,1.2,0,0,0,.757,2.27,26.749,26.749,0,0,0,8.538-4,1.1,1.1,0,0,0,.216-1.621A1.266,1.266,0,0,0,66.943,58.616Z" transform="translate(4.711 -2.957)" fill="url(#linear-gradient-16)"/>
        <path id="Path_2393" data-name="Path 2393" d="M57.265,65.674a1.167,1.167,0,1,0-.54-2.27,34.808,34.808,0,0,1-4.215.973c-14.158,3.242-21.4,6.268-33.612,5.3a1.194,1.194,0,1,0-.216,2.378C30.678,72.915,37.6,70.321,57.265,65.674Z" transform="translate(1.42 -2.557)" fill="url(#linear-gradient-17)"/>
        <path id="Path_2394" data-name="Path 2394" d="M14.362,68.632a46.419,46.419,0,0,1-9.943-3.026,1.164,1.164,0,0,0-.865,2.162A61.064,61.064,0,0,0,13.93,70.9a1.221,1.221,0,0,0,1.4-.973A1.173,1.173,0,0,0,14.362,68.632Z" transform="translate(0.228 -2.382)" fill="url(#linear-gradient-18)"/>
        <path id="Path_2395" data-name="Path 2395" d="M7,74.436a1.081,1.081,0,0,0,.865,1.4c16.319,4.215,28.964,1.4,44.852-2.594,5.4-1.4,12-2.918,17.184-5.08a1.164,1.164,0,1,0-.865-2.162c-4.971,2.053-11.456,3.567-16.86,4.971-15.671,3.891-27.884,6.7-43.663,2.594A1.229,1.229,0,0,0,7,74.436Z" transform="translate(0.561 -2.349)" fill="url(#linear-gradient-19)"/>
        <path id="Path_2396" data-name="Path 2396" d="M64.176,74.162a1.168,1.168,0,0,0-1.513-.757c-8.862,2.81-22.48,6.16-31.882,7.133A1.194,1.194,0,0,0,31,82.916c10.051-.973,24.209-4.539,32.423-7.241A1.168,1.168,0,0,0,64.176,74.162Z" transform="translate(2.399 -1.751)" fill="url(#linear-gradient-20)"/>
        <path id="Path_2397" data-name="Path 2397" d="M26.122,80.333A74.064,74.064,0,0,1,15.1,79.9a1.194,1.194,0,1,0-.216,2.378,92.61,92.61,0,0,0,11.348.432,1.2,1.2,0,0,0,1.189-1.189A1.382,1.382,0,0,0,26.122,80.333Z" transform="translate(1.113 -1.222)" fill="url(#linear-gradient-21)"/>
        <path id="Path_2398" data-name="Path 2398" d="M52.662,83.169a1.081,1.081,0,0,0-1.4-.865c-3.567.865-7.025,1.621-10.483,2.162a1.208,1.208,0,1,0,.432,2.378q5.35-.973,10.7-2.27A1.177,1.177,0,0,0,52.662,83.169Z" transform="translate(3.213 -1.031)" fill="url(#linear-gradient-22)"/>
        <path id="Path_2399" data-name="Path 2399" d="M26.5,87.047a1.2,1.2,0,0,0,1.189,1.189c-.108-.108,2.486.108,9.511-.865a1.146,1.146,0,1,0-.324-2.27c-3.242.432-6.376.757-9.295.865C26.932,85.858,26.5,86.4,26.5,87.047Z" transform="translate(2.14 -0.802)" fill="url(#linear-gradient-23)"/>
      </g>
    </g>
    <g id="Group_3308" data-name="Group 3308" transform="translate(73.17 28.363)">
      <path id="Path_2411" data-name="Path 2411" d="M2.179-2.649a2.425,2.425,0,0,0,2.646-2.49c0-1.189-.656-2.212-2.545-2.212H.545V.942H1.1v-3.59Zm.1-4.224c1.567,0,1.967.845,1.979,1.734A1.93,1.93,0,0,1,2.279-3.127H1.1V-6.873Zm3.89,4.146c0-.878.689-2.156,1.79-2.156a.5.5,0,0,1,.178.033v-.589H7.926A2.216,2.216,0,0,0,6.169-4.227V-5.439H5.647V.942h.522Zm5.891-3.035A3.5,3.5,0,0,0,8.582-2.249a3.5,3.5,0,0,0,3.479,3.513A3.5,3.5,0,0,0,15.54-2.249,3.5,3.5,0,0,0,12.061-5.761Zm0,.478a2.979,2.979,0,0,1,2.923,3.035A2.979,2.979,0,0,1,12.061.786,2.979,2.979,0,0,1,9.137-2.249,2.979,2.979,0,0,1,12.061-5.283Zm7.792,6.547A3.493,3.493,0,0,0,23.31-2.249a3.493,3.493,0,0,0-3.457-3.513,3.413,3.413,0,0,0-2.89,1.712V-5.439H16.44V3.387h.522V-.459A3.349,3.349,0,0,0,19.853,1.264Zm-2.9-3.513a2.975,2.975,0,0,1,2.9-3.035,2.975,2.975,0,0,1,2.9,3.035,2.975,2.975,0,0,1-2.9,3.035A2.975,2.975,0,0,1,16.952-2.249ZM30.413-.014l-.333-.4a3.773,3.773,0,0,1-2.646,1.2A2.991,2.991,0,0,1,24.51-2.26v-.156h6.114v-.056a3.366,3.366,0,0,0-3.3-3.29,3.424,3.424,0,0,0-3.368,3.513,3.47,3.47,0,0,0,3.479,3.513A3.975,3.975,0,0,0,30.413-.014Zm-3.09-5.269a2.875,2.875,0,0,1,2.712,2.4H24.566A2.876,2.876,0,0,1,27.322-5.283ZM32-2.727c0-.878.689-2.156,1.79-2.156a.5.5,0,0,1,.178.033v-.589h-.211A2.216,2.216,0,0,0,32-4.227V-5.439H31.48V.942H32Zm4.935-2.245v-.467h-.945V-7.317l-.522.333v1.545h-.945v.467h.945V.942h.522V-4.972Zm6.114-.467h-.534L40.272.452,37.66-5.439h-.578l2.946,6.525-.878,2.3h.511Zm2.49,6.38H46.1V-3.2h3.3v-.478H46.1v-3.19h3.6v-.478H45.541Zm5.7-8.67h-.567v1.156h.567Zm-.022,2.29H50.7V.942h.522ZM52.933-3.16a1.954,1.954,0,0,1,1.956-1.956A1.8,1.8,0,0,1,56.8-3.049V.942h.522V-3.193a2.161,2.161,0,0,0-2.3-2.4,2.579,2.579,0,0,0-2.09,1.034v-.878H52.41V.942h.522ZM64.7-.037v-5.4h-.522v1.089a3.262,3.262,0,0,0-2.59-1.412,3.2,3.2,0,0,0-3.346,3.179A3.2,3.2,0,0,0,61.592.6a3.409,3.409,0,0,0,2.59-1.412v.778c0,2.312-1.312,2.9-2.657,2.9a10.856,10.856,0,0,1-2.134-.245v.456a9.715,9.715,0,0,0,2.134.245C63.115,3.331,64.7,2.664,64.7-.037ZM61.5.119a2.716,2.716,0,0,1-2.723-2.7,2.716,2.716,0,0,1,2.723-2.7,2.7,2.7,0,0,1,2.69,2.7A2.7,2.7,0,0,1,61.5.119Zm10.56-.133-.333-.4a3.773,3.773,0,0,1-2.646,1.2A2.991,2.991,0,0,1,66.16-2.26v-.156h6.114v-.056a3.366,3.366,0,0,0-3.3-3.29A3.424,3.424,0,0,0,65.6-2.249a3.47,3.47,0,0,0,3.479,3.513A3.975,3.975,0,0,0,72.063-.014Zm-3.09-5.269a2.875,2.875,0,0,1,2.712,2.4H66.216A2.876,2.876,0,0,1,68.972-5.283Zm4.68,2.557c0-.878.689-2.156,1.79-2.156a.5.5,0,0,1,.178.033v-.589h-.211a2.216,2.216,0,0,0-1.756,1.212V-5.439H73.13V.942h.522Zm6.358,3.99a3.493,3.493,0,0,0,3.457-3.513A3.493,3.493,0,0,0,80.01-5.761a3.413,3.413,0,0,0-2.89,1.712V-5.439H76.6V3.387h.522V-.459A3.349,3.349,0,0,0,80.01,1.264Zm-2.9-3.513a2.975,2.975,0,0,1,2.9-3.035,2.975,2.975,0,0,1,2.9,3.035A2.975,2.975,0,0,1,80.01.786,2.975,2.975,0,0,1,77.109-2.249Zm7.781-.478c0-.878.689-2.156,1.79-2.156a.5.5,0,0,1,.178.033v-.589h-.211A2.216,2.216,0,0,0,84.89-4.227V-5.439h-.522V.942h.522Zm3.524-5h-.567v1.156h.567Zm-.022,2.29h-.522V.942h.522ZM90.1-3.16a1.954,1.954,0,0,1,1.956-1.956,1.8,1.8,0,0,1,1.912,2.067V.942h.522V-3.193a2.161,2.161,0,0,0-2.3-2.4A2.579,2.579,0,0,0,90.1-4.561v-.878h-.522V.942H90.1Zm7.514-1.812v-.467h-.945V-7.317l-.522.333v1.545h-.945v.467h.945V.942h.522V-4.972Z" transform="translate(2.356 45.825)" fill="#fff"/>
      <g id="Group_3307" data-name="Group 3307" transform="translate(0)">
        <path id="Path_2410" data-name="Path 2410" d="M16.061-28.957q6.632,0,10.236,3.965t3.6,11.269q0,7.978-3.941,12.375t-11.1,4.4q-6.584,0-10.188-4.061t-3.6-11.51q0-7.881,3.917-12.159T16.061-28.957Zm-.673,6.247a6.454,6.454,0,0,0-3.6.889,5.131,5.131,0,0,0-1.97,2.883,18.722,18.722,0,0,0-.625,5.406,25.892,25.892,0,0,0,.625,6.416,5.859,5.859,0,0,0,1.994,3.34,6.153,6.153,0,0,0,3.724,1.009,6.554,6.554,0,0,0,3.652-.889,5.038,5.038,0,0,0,1.946-2.907,20.148,20.148,0,0,0,.6-5.527,25.341,25.341,0,0,0-.625-6.344,5.782,5.782,0,0,0-1.97-3.292A6.243,6.243,0,0,0,15.388-22.709Zm24.125,6.392L41.676-5.072h.384L44.8-15.885l.817-4.085h7.353l.433,3.652L55.709-5.072h.433l2.6-10.813.817-4.085H65.9L59.073,2.521H51.912L49.077-10.551h-.529L45.232,2.521H37.783L32.112-19.826l6.872-.288Zm42.339,5.431q.1-3.316-2.691-3.316a6.335,6.335,0,0,0-3.652,1.442v5.334l.336,9.948H68.252l.336-9.179L68.3-19.489l7.257-.577v3.316h.288a15.468,15.468,0,0,1,5.767-3.508,8.125,8.125,0,0,1,5.5,1.658,5.819,5.819,0,0,1,1.85,4.734l-.192,6.44.288,9.948H81.467Zm19.511,3.46.336,9.948H94.107l.384-9.227L94.2-30.687l7.545-.529Z" transform="translate(-1.067 31.215)" fill="#fff"/>
        <g id="Group_3306" data-name="Group 3306" transform="translate(102.346 10.836)">
          <path id="Path_2401" data-name="Path 2401" d="M171.046,40.691l3.35,11.24h.432l3.242-10.591.865-4.323h6.485L178.4,57.659a31.608,31.608,0,0,1-2.594,5.4,16.338,16.338,0,0,1-9.511,8.646h-.54a16.515,16.515,0,0,1-3.35-4.539l.324-.757c6.268-1.621,7.781-5.944,8.538-6.917l-8.214-22.372,7.241-.324Z" transform="translate(-162.4 -36.8)" fill="#fff"/>
        </g>
      </g>
    </g>
  </g>
</svg>
