<svg xmlns="http://www.w3.org/2000/svg" width="112" height="45.662" viewBox="0 0 112 45.662"><path class="a" d="M16.5,29.551l.836-3.686a2.717,2.717,0,0,0,1.043.214,2.278,2.278,0,0,0,1.549-.691,4.727,4.727,0,0,0,1.13-2.5L13.785,5.169h5.43l3.2,9.959.626,2.763h.207l.453-2.8L26.35,5.169h4.665L25.724,21.152q-.663,1.987-1.272,3.633a16.6,16.6,0,0,1-1.34,2.853A6.37,6.37,0,0,1,21.5,29.5a3.451,3.451,0,0,1-2.1.656A5.907,5.907,0,0,1,16.5,29.551Zm38.311-6.972a5.943,5.943,0,0,1-2.306-1.921,8.086,8.086,0,0,1-1.282-3,17.834,17.834,0,0,1-.392-3.877q0-4.56,1.947-7.019a6.811,6.811,0,0,1,5.676-2.458,11.512,11.512,0,0,1,3.024.323,10.018,10.018,0,0,1,2.07.825l-1.06,3.8a8.742,8.742,0,0,0-1.555-.609,6.481,6.481,0,0,0-1.761-.216,3.292,3.292,0,0,0-2.8,1.276,6.85,6.85,0,0,0-.957,4.074,8.842,8.842,0,0,0,.239,2.118,5.387,5.387,0,0,0,.718,1.687,3.422,3.422,0,0,0,1.249,1.131,3.714,3.714,0,0,0,1.794.414,5.312,5.312,0,0,0,1.914-.306,6.451,6.451,0,0,0,1.4-.737l1.027,3.554a7.257,7.257,0,0,1-2.479,1.2,10.878,10.878,0,0,1-2.991.413A7.977,7.977,0,0,1,54.812,22.579Zm-52.168.2A10.565,10.565,0,0,1,0,21.646l1.262-3.482A11.983,11.983,0,0,0,3.4,19.08a8.5,8.5,0,0,0,2.732.448,2.973,2.973,0,0,0,1.628-.394,1.461,1.461,0,0,0,.613-1.328,1.345,1.345,0,0,0-.6-1.149A7.026,7.026,0,0,0,6.3,15.866q-.876-.357-1.926-.734a7.171,7.171,0,0,1-1.924-1.042A5.63,5.63,0,0,1,.983,12.4a5.172,5.172,0,0,1-.6-2.639A5.206,5.206,0,0,1,1.926,5.707a6.4,6.4,0,0,1,4.448-1.4,13.951,13.951,0,0,1,3.608.43,10.29,10.29,0,0,1,2.519.968L11.487,9.083c-.538-.216-1.213-.443-2.032-.682A8.785,8.785,0,0,0,6.97,8.042q-2.03,0-2.032,1.615a1.2,1.2,0,0,0,.6,1.04A7.623,7.623,0,0,0,7,11.433q.877.342,1.927.736a8.356,8.356,0,0,1,1.926,1.023,5.356,5.356,0,0,1,1.471,1.635,5.031,5.031,0,0,1,.6,2.584,5.542,5.542,0,0,1-1.7,4.289,7.3,7.3,0,0,1-5.1,1.562A12.186,12.186,0,0,1,2.644,22.777Zm87.121-1.609a5.812,5.812,0,0,1-1.156-4.046V8.369H86.154V4.549h2.455V1.285L93.236,0V4.549h4.339v3.82H93.236v6.669a6.473,6.473,0,0,0,.373,2.587,1.407,1.407,0,0,0,1.4.782,4.779,4.779,0,0,0,1.227-.139,8.63,8.63,0,0,0,1.155-.417l.82,3.472a11.9,11.9,0,0,1-2.241.765,10.951,10.951,0,0,1-2.6.312A4.743,4.743,0,0,1,89.765,21.168Zm-12.061,0a5.812,5.812,0,0,1-1.155-4.046V8.369H74.093V4.549h2.456V1.285L81.173,0V4.549h4.341v3.82H81.173v6.669a6.471,6.471,0,0,0,.374,2.587,1.41,1.41,0,0,0,1.4.782,4.781,4.781,0,0,0,1.228-.139,8.619,8.619,0,0,0,1.158-.417l.816,3.472a11.873,11.873,0,0,1-2.242.765,10.951,10.951,0,0,1-2.6.312A4.74,4.74,0,0,1,77.7,21.168ZM67.2,22.4V5.169h4.307V22.4Zm-23.577,0v-10A5.851,5.851,0,0,0,43,9.306a2.337,2.337,0,0,0-2.116-.951,3.345,3.345,0,0,0-2.223.758,4.2,4.2,0,0,0-1.3,1.881V22.4H32.738V4.8H36.4l.536,2.323h.142a7.627,7.627,0,0,1,2.168-1.971,6.5,6.5,0,0,1,3.488-.844,7.246,7.246,0,0,1,2.347.352,4,4,0,0,1,1.743,1.162,5.281,5.281,0,0,1,1.065,2.2,14.074,14.074,0,0,1,.356,3.432V22.4Z" transform="translate(0 9.477)"/><path class="a" d="M23.262,41.595A19.693,19.693,0,0,0,40.345,26.707H44.8A24.08,24.08,0,0,1,25.385,45.662ZM0,10.338l.01-.077A24.921,24.921,0,0,1,4.676,3.993,24.273,24.273,0,0,1,10.043,0l2.019,3.993a20.09,20.09,0,0,0-6.973,6.345Z" transform="translate(67.2)"/></svg>