<svg xmlns="http://www.w3.org/2000/svg" width="19.025" height="27.617" viewBox="0 0 19.025 27.617">
  <g id="facebook-placeholder-for-locate-places-on-maps" transform="translate(-66.905)">
    <path id="Facebook_Places" d="M85.481,6.874a8.606,8.606,0,0,0-.446-1.1,9.461,9.461,0,0,0-18.13,2.8V9.746c0,.049.017.491.041.712.344,2.749,2.513,5.671,4.133,8.42,1.743,2.945,3.552,5.843,5.344,8.739,1.1-1.89,2.206-3.8,3.286-5.646.294-.54.636-1.08.93-1.6.2-.343.571-.687.743-1.006,1.743-3.191,4.548-6.407,4.548-9.574v-1.3A9.8,9.8,0,0,0,85.481,6.874ZM76.365,12.79a3.377,3.377,0,0,1-3.233-2.308,3.2,3.2,0,0,1-.091-.86V8.862A3.2,3.2,0,0,1,76.471,5.72a3.477,3.477,0,0,1,3.483,3.535A3.566,3.566,0,0,1,76.365,12.79Z" fill="#b1b3c5"/>
  </g>
</svg>
