<svg xmlns="http://www.w3.org/2000/svg" width="17.719" height="15.75" viewBox="0 0 17.719 15.75">
  <g id="cle-towel" transform="translate(-1.313 -2.625)">
    <path id="Fill_67" data-name="Fill 67" d="M0,0V2.953a.328.328,0,0,0,.328.328H9.516a.328.328,0,0,0,.328-.328V0Z" transform="translate(3.938 15.094)" fill="#dfdfdf"/>
    <path id="Fill_69" data-name="Fill 69" d="M16.734,1.969a.983.983,0,0,0-.924.656h-.736A2.957,2.957,0,0,0,12.141,0H5.578A2.957,2.957,0,0,0,2.644,2.625H1.908a.984.984,0,1,0,0,.656h.717v8.531h9.844V2.953a.328.328,0,0,1,.656,0v.328H15.81a.983.983,0,1,0,.924-1.312" transform="translate(1.313 2.625)" fill="#dfdfdf"/>
    <path id="Fill_71" data-name="Fill 71" d="M0,6.563H1.969V0H0Z" transform="translate(14.438 6.563)" fill="#dfdfdf"/>
    <path id="Fill_73" data-name="Fill 73" d="M0,0V3.281H1.641a.328.328,0,0,0,.328-.328V0Z" transform="translate(14.438 13.781)" fill="#dfdfdf"/>
  </g>
</svg>
