<svg xmlns="http://www.w3.org/2000/svg" xmlns:xlink="http://www.w3.org/1999/xlink" width="879.148" height="517.393" viewBox="0 0 879.148 517.393"><defs><style>.a{fill:#e8e8e8;}.b{fill:url(#a);}.c,.d,.f{fill:#fff;}.c{font-size:19px;}.c,.g{font-family:OpenSans-Bold, Open Sans;font-weight:700;letter-spacing:0.05em;}.d{font-size:11px;}.d,.h{font-family:OpenSans, Open Sans;letter-spacing:0.1em;}.e{fill:#069adf;}.g,.h{fill:#435260;}.g{font-size:22px;}.h{font-size:13px;}.i{fill:#00cbef;}.j{filter:url(#g);}.k{filter:url(#e);}.l{filter:url(#b);}</style><linearGradient id="a" x1="1.009" x2="-0.032" y2="1.154" gradientUnits="objectBoundingBox"><stop offset="0" stop-color="#00d8ff"/><stop offset="1" stop-color="#0b67bc"/></linearGradient><filter id="b" x="39.887" y="20.453" width="757.1" height="313.932" filterUnits="userSpaceOnUse"><feOffset dy="10" input="SourceAlpha"/><feGaussianBlur stdDeviation="32" result="c"/><feFlood flood-color="#2b376a" flood-opacity="0.161"/><feComposite operator="in" in2="c"/><feComposite in="SourceGraphic"/></filter><filter id="e" x="39.887" y="203.461" width="757.1" height="313.932" filterUnits="userSpaceOnUse"><feOffset dy="10" input="SourceAlpha"/><feGaussianBlur stdDeviation="32" result="f"/><feFlood flood-color="#2b376a" flood-opacity="0.161"/><feComposite operator="in" in2="f"/><feComposite in="SourceGraphic"/></filter><filter id="g" x="0" y="102.48" width="836.873" height="332.775" filterUnits="userSpaceOnUse"><feOffset dy="10" input="SourceAlpha"/><feGaussianBlur stdDeviation="32" result="h"/><feFlood flood-color="#2b376a" flood-opacity="0.161"/><feComposite operator="in" in2="h"/><feComposite in="SourceGraphic"/></filter></defs><g transform="translate(95.999)"><path class="a" d="M324.806,267.813c-.568-.168,5,.952-84.211-16.405V231.6c21.582-14.552,32.794-35.256,35.038-57.973a20.341,20.341,0,0,0,19.48-20.3c0-11.572,0-15.443-.007-15.84,18.306-7.259,15.1-34.157-4.349-36.915v-6.8A93.883,93.883,0,0,0,196.98,0h-7.935A93.883,93.883,0,0,0,95.271,93.777v6.795c-19.409,2.755-22.682,29.649-4.353,36.915-.007.4,0,4.272,0,15.84a20.343,20.343,0,0,0,19.477,20.3c2.24,22.666,13.344,43.343,35.038,57.969v19.81c-89.4,17.394-83.639,16.237-84.211,16.405C20.025,279.939,0,302.37,0,336.385v75.3a29.256,29.256,0,0,0,29.225,29.222H356.8a29.255,29.255,0,0,0,29.222-29.222v-75.3C386.025,302.37,366,279.939,324.806,267.813Zm48.3,68.572v18.232h-48.53V281.251C358.1,291.915,373.108,309.023,373.108,336.385ZM235.19,22.531a81.356,81.356,0,0,1,9.405,5.93v10.6a22.722,22.722,0,0,1-9.405,0Zm-46.879-9.607c.632-.007,8.773-.007,9.405,0v45.95a22.722,22.722,0,0,1-9.405,0ZM141.433,28.462a81.314,81.314,0,0,1,9.4-5.93v16.53a22.706,22.706,0,0,1-9.4,0ZM128.512,40.228c.091.165-1.739,12.241,17.623,12.241,10.869,0,17.62-4.249,17.62-11.084V16.971a79.825,79.825,0,0,1,11.636-2.9V61.2c0,8.282,9.378,11.081,17.623,11.081,10.869,0,17.62-4.245,17.62-11.081V14.074a79.718,79.718,0,0,1,11.636,2.9V41.385c0,6.835,6.751,11.084,17.62,11.084,19.668,0,17.512-12.039,17.623-12.241,24.008,27.109,19.847,57.31,20.321,60.152H108.191C108.672,97.5,104.4,67.449,128.512,40.228Zm-5.581,126.817c-.178-8.332-10.5-6.031-11.7-6.321a7.4,7.4,0,0,1-7.394-7.4V138.833h25.649c8.544,0,8.554-12.921,0-12.921h-31.5c-8.342,0-8.342-12.611,0-12.611H288.043c8.346,0,8.336,12.611,0,12.611H155.326c-8.541,0-8.554,12.921,0,12.921H282.193v14.495a7.406,7.406,0,0,1-7.4,7.4c-1.332.32-11.521-1.985-11.7,6.321-.851,39.677-34.328,65.938-70.082,66.369C157.364,232.983,123.783,206.819,122.932,167.045ZM227.675,238.82v17.912a34.663,34.663,0,1,1-69.326,0V238.82A84.06,84.06,0,0,0,227.675,238.82ZM114.62,270.561l31.435-6.115a47.588,47.588,0,0,0,93.915,0l31.439,6.115v48.352a10.076,10.076,0,0,1-10.068,10.065H124.684a10.077,10.077,0,0,1-10.065-10.065Zm-53.169,10.69v73.366H12.921V336.385C12.921,309.023,27.923,291.915,61.451,281.251ZM29.225,427.986a16.321,16.321,0,0,1-16.3-16.3V367.534h48.53v60.452Zm238.345-48.167V391.3H252.813c-8.541,0-8.554,12.921,0,12.921h14.757v23.762H118.458V404.22H226.972c8.541,0,8.554-12.921,0-12.921H118.458c.286-10.579-.622-12.214.73-12.214C275.711,379.432,267.571,378.372,267.571,379.819Zm44.087,48.167H280.488v-48.17a13.663,13.663,0,0,0-13.65-13.647H119.188a13.663,13.663,0,0,0-13.65,13.647v48.17H74.371v-149.6l27.328-5.312v45.839A23.01,23.01,0,0,0,124.684,341.9H261.341a23.01,23.01,0,0,0,22.985-22.985V273.074l27.328,5.312v149.6Zm45.146,0H324.574V367.534H373.1v44.151A16.318,16.318,0,0,1,356.8,427.986Zm0,0" transform="translate(397.124)"/><g transform="translate(0 106.454)"><g transform="translate(39.887 0)"><g class="l" transform="matrix(1, 0, 0, 1, -135.89, -106.45)"><rect class="b" width="565.1" height="121.931" rx="5" transform="translate(135.89 106.45)"/></g><g transform="translate(151.973 37.596)"><text class="c" transform="translate(0 20)"><tspan x="0" y="0">CARPENTER</tspan></text><text class="d" transform="translate(0 44.515)"><tspan x="0" y="0">BONDI JUNCTION</tspan></text></g><ellipse class="e" cx="34.547" cy="34.547" rx="34.547" ry="34.547" transform="translate(36.579 26.418)"/><g transform="translate(58.088 48.214)"><path class="f" d="M17.321,2.968a10.149,10.149,0,1,0-1.388,15.5,2.137,2.137,0,0,0,.58,1.076l5.762,5.762a2.144,2.144,0,0,0,3.032-3.032l-5.762-5.764a2.144,2.144,0,0,0-1.075-.578A10.159,10.159,0,0,0,17.321,2.968ZM15.5,15.5a7.576,7.576,0,1,1,0-10.714A7.585,7.585,0,0,1,15.5,15.5Z" transform="translate(-0.001 0)"/></g></g><g transform="translate(39.887 183.008)"><g class="k" transform="matrix(1, 0, 0, 1, -135.89, -289.46)"><rect class="b" width="565.1" height="121.931" rx="5" transform="translate(135.89 289.46)"/></g><g transform="translate(152.124 37.596)"><text class="c" transform="translate(0 20)"><tspan x="0" y="0">PAINTER</tspan></text><text class="d" transform="translate(0 44.515)"><tspan x="0" y="0">GOLD COAST</tspan></text></g><ellipse class="e" cx="34.547" cy="34.547" rx="34.547" ry="34.547" transform="translate(36.579 26.418)"/><g transform="translate(58.088 48.206)"><path class="f" d="M17.321,2.968a10.149,10.149,0,1,0-1.388,15.5,2.137,2.137,0,0,0,.58,1.076l5.762,5.762a2.144,2.144,0,0,0,3.032-3.032l-5.762-5.764a2.144,2.144,0,0,0-1.075-.578A10.159,10.159,0,0,0,17.321,2.968ZM15.5,15.5a7.576,7.576,0,1,1,0-10.714A7.585,7.585,0,0,1,15.5,15.5Z" transform="translate(-0.001 0)"/></g></g><g transform="translate(0 82.027)"><g class="j" transform="matrix(1, 0, 0, 1, -96, -188.48)"><rect class="f" width="644.874" height="140.776" rx="5" transform="translate(96 188.48)"/></g><g transform="translate(174.368 43.406)"><text class="g" transform="translate(0 24)"><tspan x="0" y="0">ELECTRICIAN</tspan></text><text class="h" transform="translate(0 51.54)"><tspan x="0" y="0">MELBOURNE</tspan></text></g><ellipse class="i" cx="39.886" cy="39.886" rx="39.886" ry="39.886" transform="translate(42.233 30.501)"/><g transform="translate(68.975 57.187)"><path class="f" d="M17.321,2.968a10.149,10.149,0,1,0-1.388,15.5,2.137,2.137,0,0,0,.58,1.076l5.762,5.762a2.144,2.144,0,0,0,3.032-3.032l-5.762-5.764a2.144,2.144,0,0,0-1.075-.578A10.159,10.159,0,0,0,17.321,2.968ZM15.5,15.5a7.576,7.576,0,1,1,0-10.714A7.585,7.585,0,0,1,15.5,15.5Z" transform="translate(-0.001 0)"/></g></g></g></g></svg>